<svg width="110" height="30" viewBox="0 0 110 30" fill="none" xmlns="http://www.w3.org/2000/svg">
<path d="M37.3379 6.79102C36.1025 6.79102 34.9639 7.26367 34.3193 7.89746C33.2988 8.88574 32.9336 10.0459 32.9336 12.6348H31.4404V13.0752H32.9336V21.959C32.9336 23.1836 32.5576 23.5381 31.5264 23.5381V24C32.085 23.9785 33.2666 23.9141 34.3838 23.9141C35.9092 23.9141 37.4131 23.9785 38.1758 24V23.5381C36.876 23.5381 36.1025 23.1621 36.1025 21.7334V13.0752H38.4551V12.6348H36.1025V10.6367C36.1025 8.93945 36.21 8.20898 36.5107 7.76855C36.7471 7.41406 37.1338 7.18848 37.7031 7.18848C38.1328 7.18848 38.4014 7.32812 38.498 7.5C37.6494 7.74707 37.209 8.38086 37.209 9.13281C37.209 10.1104 37.8965 10.7012 38.8848 10.7012C39.8086 10.7012 40.4424 9.98145 40.4424 9.16504C40.4424 8.43457 40.1094 7.86523 39.6904 7.52148C39.0996 7.08105 38.3584 6.79102 37.3379 6.79102ZM41.6992 20.9062C40.5498 20.9062 39.8301 21.5508 39.8301 22.6143C39.8301 23.667 40.5498 24.3115 41.6992 24.3115C42.8486 24.3115 43.5791 23.667 43.5791 22.6143C43.5791 21.5508 42.8486 20.9062 41.6992 20.9062ZM53.1074 12.3125C51.5498 12.3125 50.3037 13.0537 49.6914 14.4502V12.3877C48.7783 12.6133 47.7041 12.6992 46.4795 12.6992C46.0391 12.6992 45.5771 12.6777 45.1152 12.6348V13.0967C46.1787 13.0967 46.5225 13.709 46.5225 15.0303V26.0195C46.5225 27.1904 46.168 27.5234 45.2012 27.5234V27.9854C45.749 27.9639 46.8984 27.8887 47.9727 27.8887C49.4658 27.8887 50.9268 27.9639 51.668 27.9854V27.5234C50.4326 27.5234 49.6914 27.1689 49.6914 25.8047V23.6025C50.2393 24.0645 51.0449 24.3115 51.9473 24.3115C55.0303 24.3115 57.0391 22.0771 57.0391 17.8018C57.0391 14.1387 55.3418 12.3125 53.1074 12.3125ZM51.0879 23.71C50.4971 23.71 50.0137 23.4951 49.6914 23.1191V15.2021C49.96 13.9561 50.8516 13.2578 51.8184 13.2578C52.9678 13.2578 53.7197 14.4932 53.7197 18.2314C53.7197 21.6152 53.043 23.71 51.0879 23.71ZM63.6562 12.3125C62.1738 12.3125 61.0996 12.624 60.3154 13.0645C59.5957 13.4834 59.0801 14.0957 59.0801 14.9014C59.0801 15.8682 59.6816 16.5986 60.6377 16.5986C61.7227 16.5986 62.4316 15.9326 62.4316 15.0195C62.4316 14.1279 61.916 13.5586 61.1318 13.29C61.5293 12.9033 62.1738 12.7529 62.7002 12.7529C64 12.7529 64.4941 13.5693 64.4941 14.7188V16.4375C64.4941 17.3828 63.2266 17.8018 61.6045 18.4141C59.5635 19.166 58.5107 20.0576 58.5107 21.6475C58.5107 23.248 59.6494 24.1504 61.293 24.1504C62.5283 24.1504 63.7852 23.6025 64.5371 22.3672C64.5479 23.3125 65.042 24.1504 66.6533 24.1504C67.7705 24.1504 68.501 23.8818 69.167 23.3447L68.9414 22.9688C68.6943 23.1621 68.4473 23.3447 68.1357 23.3447C67.7812 23.3447 67.6631 23.0762 67.6631 22.3672V16.3838C67.6631 14.8477 67.5234 13.9668 66.8789 13.3008C66.1699 12.5703 65.0742 12.3125 63.6562 12.3125ZM64.4941 21.8516C64.0322 22.5068 63.5488 22.7432 63.0117 22.7432C62.2275 22.7432 61.6367 22.249 61.6367 21.0352C61.6367 19.7139 62.3564 18.9941 63.1299 18.4248C63.8711 17.9629 64.29 17.6729 64.4941 17.3398V21.8516ZM74.2695 6.78027C73.3564 6.99512 72.2822 7.08105 71.0576 7.08105C70.6172 7.08105 70.1553 7.05957 69.6934 7.0166V7.47852C70.7568 7.47852 71.1006 8.10156 71.1006 9.42285V21.959C71.1006 23.1836 70.7246 23.5381 69.6934 23.5381V24C70.2842 23.9785 71.5947 23.9141 72.7441 23.9141C73.8828 23.9141 75.1182 23.9785 75.6768 24V23.5381C74.6562 23.5381 74.2695 23.1836 74.2695 21.959V6.78027ZM81.8965 12.3125C80.4141 12.3125 79.3398 12.624 78.5557 13.0645C77.8359 13.4834 77.3203 14.0957 77.3203 14.9014C77.3203 15.8682 77.9219 16.5986 78.8779 16.5986C79.9629 16.5986 80.6719 15.9326 80.6719 15.0195C80.6719 14.1279 80.1562 13.5586 79.3721 13.29C79.7695 12.9033 80.4141 12.7529 80.9404 12.7529C82.2402 12.7529 82.7344 13.5693 82.7344 14.7188V16.4375C82.7344 17.3828 81.4668 17.8018 79.8447 18.4141C77.8037 19.166 76.751 20.0576 76.751 21.6475C76.751 23.248 77.8896 24.1504 79.5332 24.1504C80.7686 24.1504 82.0254 23.6025 82.7773 22.3672C82.7881 23.3125 83.2822 24.1504 84.8936 24.1504C86.0107 24.1504 86.7412 23.8818 87.4072 23.3447L87.1816 22.9688C86.9346 23.1621 86.6875 23.3447 86.376 23.3447C86.0215 23.3447 85.9033 23.0762 85.9033 22.3672V16.3838C85.9033 14.8477 85.7637 13.9668 85.1191 13.3008C84.4102 12.5703 83.3145 12.3125 81.8965 12.3125ZM82.7344 21.8516C82.2725 22.5068 81.7891 22.7432 81.252 22.7432C80.4678 22.7432 79.877 22.249 79.877 21.0352C79.877 19.7139 80.5967 18.9941 81.3701 18.4248C82.1113 17.9629 82.5303 17.6729 82.7344 17.3398V21.8516ZM93.7451 12.3125C90.6299 12.3125 88.3096 14.3965 88.3096 18.3711C88.3096 22.4961 90.5654 24.3115 93.4336 24.3115C95.9473 24.3115 97.3008 22.4854 97.8057 20.8418L97.4189 20.7021C96.5273 22.1738 95.3564 22.4961 94.54 22.4961C93.0898 22.4961 91.6289 21.4756 91.6289 18.0596C91.6289 15.0732 92.585 12.8496 94.4111 12.8496C94.9912 12.8496 95.5068 13.0752 95.7324 13.376C94.9482 13.5908 94.2822 14.2568 94.2822 15.1807C94.2822 16.1689 94.9375 16.8135 95.9795 16.8135C96.9893 16.8135 97.7197 16.083 97.7197 15.041C97.7197 14.1709 97.2471 13.4404 96.5059 12.9893C95.8721 12.5918 94.8838 12.3125 93.7451 12.3125ZM105.422 22.4961C104.025 22.4961 102.554 21.3037 102.554 18.2422C102.554 17.8877 102.564 17.5225 102.597 17.2002H108.752C108.752 13.752 107.184 12.3125 104.616 12.3125C101.49 12.3125 99.2344 14.3428 99.2344 18.4248C99.2344 22.4424 101.34 24.3115 104.305 24.3115C106.743 24.3115 108.183 22.5391 108.709 20.8848L108.312 20.7344C107.42 22.1953 106.303 22.4961 105.422 22.4961ZM104.487 12.7852C105.562 12.7852 106.023 14.6328 105.98 16.7812H102.532C102.715 13.9346 103.499 12.7852 104.487 12.7852Z" fill="#2E2E2E"/>
<g clip-path="url(#clip0_401_277)">
<path d="M17.7021 12.4257L17.4346 11.5453C17.0949 10.5452 16.0087 10.01 15.0086 10.3497C14.4459 10.5409 14.0041 10.9827 13.813 11.5453L13.5455 12.4257C13.3204 13.1682 13.2731 13.9533 13.4076 14.7174C13.5302 15.3607 13.9386 15.9134 14.5176 16.2195L14.218 22.9166C14.1779 23.2904 14.2991 23.6636 14.5513 23.9424C15.0937 24.5356 16.0143 24.5769 16.6075 24.0345C16.6396 24.0052 16.6703 23.9745 16.6996 23.9424C16.9462 23.6715 17.0672 23.3092 17.033 22.9445L16.7317 16.2187C17.3099 15.9125 17.7177 15.3601 17.8401 14.7174C17.9745 13.9533 17.9272 13.1682 17.7021 12.4257ZM17.0192 14.5724C16.929 15.0346 16.5996 15.4138 16.1546 15.5678C15.9857 15.6313 15.8769 15.7963 15.8851 15.9766L16.2017 23.0103C16.2163 23.1483 16.1708 23.2858 16.0767 23.3878C15.8258 23.6362 15.4218 23.6362 15.1709 23.3878C15.0721 23.2776 15.0273 23.1293 15.0484 22.9828L15.3626 15.9766C15.3707 15.7963 15.2619 15.6313 15.093 15.5678C14.648 15.4138 14.3186 15.0346 14.2284 14.5724C14.1169 13.938 14.1562 13.2863 14.343 12.6699L14.6105 11.7891C14.8175 11.2294 15.4389 10.9435 15.9986 11.1505C16.2945 11.26 16.5277 11.4932 16.6371 11.7891L16.9046 12.6699C17.0912 13.2864 17.1305 13.938 17.0192 14.5724Z" fill="#FF9401"/>
<path d="M11.2492 10.25C11.0191 10.25 10.8325 10.4366 10.8325 10.6667V14.2442L9.7046 15.3721C9.62117 15.4552 9.57679 15.5698 9.58252 15.6875L9.9471 22.9792C9.9558 23.1364 9.89872 23.2902 9.7896 23.4038C9.56153 23.6339 9.19007 23.6355 8.95992 23.4074C8.95867 23.4062 8.95747 23.4049 8.95627 23.4038C8.8471 23.2902 8.79007 23.1364 8.79877 22.9792L9.16585 15.6875C9.17169 15.5699 9.12747 15.4553 9.04419 15.3721L7.91585 14.2442V10.6667C7.91585 10.4366 7.72929 10.25 7.49919 10.25C7.26908 10.25 7.08252 10.4366 7.08252 10.6667V14.4167C7.08252 14.5272 7.12648 14.6331 7.2046 14.7113L8.32377 15.8308L7.96835 22.9388C7.93054 23.7152 8.52929 24.3753 9.3057 24.4131C10.0821 24.4509 10.7422 23.8521 10.78 23.0757C10.7823 23.0301 10.7823 22.9844 10.78 22.9388L10.4246 15.8309L11.5438 14.7113C11.6219 14.6332 11.6659 14.5272 11.6659 14.4167V10.6667C11.6659 10.4366 11.4793 10.25 11.2492 10.25Z" fill="#FF9401"/>
<path d="M8.74919 10.25C8.51908 10.25 8.33252 10.4366 8.33252 10.6667V14C8.33252 14.2301 8.51908 14.4167 8.74919 14.4167C8.97929 14.4167 9.16585 14.2301 9.16585 14V10.6667C9.16585 10.4366 8.97929 10.25 8.74919 10.25Z" fill="#FF9401"/>
<path d="M9.99919 10.25C9.76908 10.25 9.58252 10.4366 9.58252 10.6667V14C9.58252 14.2301 9.76908 14.4167 9.99919 14.4167C10.2293 14.4167 10.4159 14.2301 10.4159 14V10.6667C10.4159 10.4366 10.2293 10.25 9.99919 10.25Z" fill="#FF9401"/>
<path d="M12.5 4C5.59646 4 0 9.59646 0 16.5C0 23.4035 5.59646 29 12.5 29C19.4035 29 25 23.4035 25 16.5C24.9922 9.59969 19.4003 4.00781 12.5 4ZM12.5 28.1667C6.05667 28.1667 0.833333 22.9433 0.833333 16.5C0.833333 10.0567 6.05667 4.83333 12.5 4.83333C18.9433 4.83333 24.1667 10.0567 24.1667 16.5C24.1593 22.9403 18.9403 28.1593 12.5 28.1667Z" fill="#2E2E2E"/>
<path d="M13.8525 24.3215C13.8301 24.0925 13.6263 23.925 13.3973 23.9473C13.3919 23.9478 13.3865 23.9485 13.3812 23.9492L13.3828 23.9488C12.7962 24.0169 12.2036 24.0169 11.617 23.9488C11.3883 23.9219 11.1813 24.0855 11.1545 24.3142C11.1277 24.5428 11.2913 24.7499 11.5199 24.7767C12.1705 24.8527 12.8277 24.8527 13.4782 24.7767C13.7073 24.7544 13.8748 24.5506 13.8525 24.3215Z" fill="#2E2E2E"/>
<path d="M18.8748 11.1308C18.7269 10.9545 18.4641 10.9315 18.2878 11.0794C18.2872 11.0799 18.2867 11.0804 18.286 11.0808C18.1102 11.2292 18.0878 11.492 18.236 11.6679C20.7483 14.6502 20.5561 19.0601 17.794 21.8125C17.6309 21.975 17.6305 22.2389 17.7929 22.4019C17.9554 22.5649 18.2193 22.5654 18.3823 22.4029C21.4519 19.345 21.666 14.4449 18.8748 11.1308Z" fill="#2E2E2E"/>
<path d="M14.4667 8.39998C12.8383 8.00972 11.1305 8.11461 9.5621 8.70123C9.34669 8.78222 9.23778 9.02253 9.31877 9.23789C9.37981 9.40024 9.53502 9.50768 9.70841 9.50784C9.75825 9.50758 9.80762 9.49847 9.85419 9.48081C11.2666 8.95263 12.8045 8.85831 14.2709 9.20998C14.4946 9.26404 14.7197 9.12659 14.7738 8.90289C14.8278 8.67919 14.6904 8.45404 14.4667 8.39998Z" fill="#2E2E2E"/>
<path d="M7.18629 21.7913C5.78165 20.3891 4.99441 18.4844 4.9992 16.4996C4.99509 14.9139 5.49738 13.3683 6.43295 12.088C6.57124 11.904 6.5342 11.6428 6.35025 11.5045C6.16629 11.3663 5.90509 11.4033 5.76681 11.5872C5.76436 11.5905 5.76196 11.5938 5.75962 11.5971C3.35061 14.909 3.70509 19.4804 6.59587 22.3813C6.75879 22.5443 7.02306 22.5444 7.18608 22.3815C7.3491 22.2186 7.34921 21.9543 7.18629 21.7913Z" fill="#2E2E2E"/>
</g>
<defs>
<clipPath id="clip0_401_277">
<rect width="25" height="25" fill="white" transform="translate(0 4)"/>
</clipPath>
</defs>
</svg>
